<svg width="265" height="51" viewBox="0 0 265 51" fill="none" xmlns="http://www.w3.org/2000/svg">
<g clip-path="url(#clip0_4_429)">
<path fill-rule="evenodd" clip-rule="evenodd" d="M7.2 3.64286C7.2 1.63096 8.81178 0 10.8 0L14.4 0L21.6 0L25.2 0C27.1882 0 28.8 1.63096 28.8 3.64286V7.28571L21.6 7.28571L14.4 7.28571L7.2 7.28571V3.64286ZM7.2 21.8571H3.6C1.61177 21.8571 0 20.2262 0 18.2143L0 14.5714L0 10.9286C0 8.91668 1.61178 7.28571 3.6 7.28571H7.2L7.2 14.5714L7.2 21.8571ZM28.8 29.1429L21.6 29.1429H14.4L10.8 29.1429C8.81177 29.1429 7.2 27.5119 7.2 25.5L7.2 21.8571L14.4 21.8571H21.6H25.2C27.1882 21.8571 28.8 23.4881 28.8 25.5V29.1429ZM28.8 43.7143V36.4286L28.8 29.1429H32.4C34.3882 29.1429 36 30.7738 36 32.7857V36.4286V40.0714C36 42.0833 34.3882 43.7143 32.4 43.7143H28.8ZM7.2 43.7143L7.2 47.3571C7.2 49.369 8.81177 51 10.8 51H14.4H21.6L25.2 51C27.1882 51 28.8 49.369 28.8 47.3571V43.7143L21.6 43.7143H14.4H7.2ZM7.2 43.7143H3.6C1.61178 43.7143 0 42.0833 0 40.0714C0 38.0595 1.61178 36.4286 3.6 36.4286C5.58822 36.4286 7.2 38.0595 7.2 40.0714L7.2 43.7143ZM28.8 7.28571L32.4 7.28571C34.3882 7.28571 36 8.91668 36 10.9286C36 12.9405 34.3882 14.5714 32.4 14.5714C30.4118 14.5714 28.8 12.9405 28.8 10.9286V7.28571ZM14.4 36.4286C14.4 34.4167 16.0118 32.7857 18 32.7857C19.9882 32.7857 21.6 34.4167 21.6 36.4286C21.6 38.4405 19.9882 40.0714 18 40.0714C16.0118 40.0714 14.4 38.4405 14.4 36.4286ZM21.6 14.5714C21.6 12.5595 19.9882 10.9286 18 10.9286C16.0118 10.9286 14.4 12.5595 14.4 14.5714C14.4 16.5833 16.0118 18.2143 18 18.2143C19.9882 18.2143 21.6 16.5833 21.6 14.5714Z" fill="#FF4D00"/>
<path d="M252.289 21.7282V18.5569H253.59C254.85 18.5569 255.786 17.4999 255.786 16.0362V13.3528H258.876V18.5569H263.348V21.7282H258.876V33.5189C258.876 35.0232 259.973 36.0397 261.64 36.0397C262.21 36.0397 262.86 35.9584 263.348 35.7957L263.429 39.0483C262.779 39.2516 261.925 39.3736 261.152 39.3736C257.859 39.3736 255.623 37.3001 255.623 34.1694V21.7282H252.289Z" fill="white"/>
<path d="M252.764 31.8927C252.032 36.2837 248.129 39.3736 243.412 39.3736C237.842 39.3736 233.411 35.1046 233.411 28.7214C233.411 22.4601 237.72 18.0691 243.25 18.0691C247.844 18.0691 251.625 21.0777 252.438 25.2248L248.861 26.3632C248.535 23.4359 246.218 21.2404 243.25 21.2404C239.672 21.2404 236.907 24.3304 236.907 28.7214C236.907 33.1937 239.672 36.121 243.25 36.121C246.34 36.121 248.779 34.0068 249.023 30.7542L252.764 31.8927Z" fill="white"/>
<path d="M223.001 39.3736C217.146 39.3736 213.081 34.942 213.081 28.8027C213.081 22.5821 217.146 18.0691 222.838 18.0691C228.693 18.0691 232.434 22.7854 232.434 29.2906C232.434 29.4532 232.434 29.6565 232.393 29.9817H216.658C217.146 33.6003 219.667 36.121 223.001 36.121C225.684 36.121 228.124 34.4134 228.612 32.0553L232.271 33.1937C231.376 36.7716 227.555 39.3736 223.001 39.3736ZM216.74 26.8105H228.937C228.286 23.2326 225.603 21.2404 222.676 21.2404C219.667 21.2404 217.35 23.4765 216.74 26.8105Z" fill="white"/>
<path d="M208.047 26.7698C208.047 23.5985 205.973 21.3217 202.924 21.3217C199.549 21.3217 196.744 24.1271 196.744 27.9895V38.8857H193.491V18.557H196.256L196.703 22.2975C197.76 19.7767 200.159 18.0691 203.412 18.0691C208.006 18.0691 211.299 21.6063 211.299 26.5259V38.8857H208.047V26.7698Z" fill="white"/>
<path d="M187.32 26.7698C187.32 23.5985 185.246 21.3217 182.197 21.3217C178.822 21.3217 176.017 24.1271 176.017 27.9895V38.8857H172.764V18.557H175.529L175.976 22.2975C177.033 19.7767 179.432 18.0691 182.685 18.0691C187.279 18.0691 190.572 21.6063 190.572 26.5259V38.8857H187.32V26.7698Z" fill="white"/>
<path d="M160.467 39.3736C154.572 39.3736 150.303 34.9013 150.303 28.7214C150.303 22.5414 154.572 18.0691 160.467 18.0691C166.362 18.0691 170.632 22.5414 170.632 28.7214C170.632 34.9013 166.362 39.3736 160.467 39.3736ZM153.718 28.7214C153.718 33.0311 156.564 36.121 160.467 36.121C164.37 36.121 167.216 33.0311 167.216 28.7214C167.216 24.371 164.37 21.2404 160.467 21.2404C156.564 21.2404 153.718 24.371 153.718 28.7214Z" fill="white"/>
<path d="M149.169 29.7785C148.194 35.5518 143.559 39.3736 137.541 39.3736C130.142 39.3736 124.775 33.6003 124.775 25.672C124.775 17.7438 130.02 11.9705 137.297 11.9705C143.03 11.9705 147.868 15.7516 148.844 20.9964L145.104 22.2975C144.453 18.2317 141.16 15.3044 137.297 15.3044C132.175 15.3044 128.434 19.6547 128.434 25.672C128.434 31.6487 132.256 35.9584 137.541 35.9584C141.729 35.9584 144.86 33.0311 145.348 28.64L149.169 29.7785Z" fill="white"/>
<path d="M103.642 31.8927C103.804 34.4541 106.285 36.2837 109.09 36.2837C111.367 36.2837 113.074 35.0639 113.074 33.3563C113.074 28.7214 101.04 30.7136 101.04 23.5985C101.04 20.0207 104.252 18.0691 108.277 18.0691C112.465 18.0691 115.554 20.3866 116.002 23.5985L112.586 24.493C112.505 22.5008 110.635 21.0777 108.277 21.0777C106.244 21.0777 104.536 22.1348 104.536 23.7611C104.536 28.1522 116.652 26.2413 116.652 33.3563C116.652 36.9342 113.481 39.3736 108.846 39.3736C104.008 39.3736 100.349 36.6496 100.064 32.8684L103.642 31.8927Z" fill="white"/>
<path d="M88.4531 21.7282V18.5569H89.7542C91.0145 18.5569 91.9497 17.4999 91.9497 16.0362V13.3528H95.0396V18.5569H99.512V21.7282H95.0396V33.5189C95.0396 35.0232 96.1374 36.0397 97.8044 36.0397C98.3736 36.0397 99.0241 35.9584 99.512 35.7957L99.5933 39.0483C98.9428 39.2516 98.089 39.3736 97.3165 39.3736C94.0232 39.3736 91.787 37.3001 91.787 34.1694V21.7282H88.4531Z" fill="white"/>
<path d="M84.6919 29.1279C84.4073 29.2499 83.8787 29.3312 83.3095 29.4532L77.9427 30.429C75.9911 30.7949 75.0154 32.0146 75.0154 33.519C75.0154 35.1046 76.3164 36.2024 78.5932 36.2024C81.9678 36.2024 84.6919 33.6816 84.6919 30.429V29.1279ZM71.4375 33.519C71.4375 30.5916 73.3891 28.5181 77.1296 27.8269L83.3908 26.6885C84.1633 26.5665 84.6919 26.1193 84.6919 25.5501V25.3874C84.6919 22.826 82.8216 20.9964 80.2195 20.9964C77.5361 20.9964 75.7472 23.0293 75.6659 25.8753L72.088 25.3061C72.4946 21.1184 75.7879 18.0691 80.1382 18.0691C84.5292 18.0691 87.9445 20.9558 87.9445 25.3874V34.82L88.0258 38.8857H85.3424L84.8138 35.5518C83.6348 37.91 81.1953 39.3736 77.9427 39.3736C74.0396 39.3736 71.4375 36.9342 71.4375 33.519Z" fill="white"/>
<path d="M53.8665 29.6158C54.0291 33.3563 56.9158 36.0397 60.9409 36.0397C64.1935 36.0397 66.7143 34.2508 66.7143 31.73C66.7143 25.4281 51.2644 27.6236 51.2644 19.0449C51.2644 14.7352 55.1675 11.9705 60.1277 11.9705C65.1693 11.9705 68.9911 14.8165 69.479 19.0449L65.7385 20.102C65.4132 17.3373 63.3803 15.2231 60.1277 15.2231C57.363 15.2231 54.9236 16.6867 54.9236 18.8822C54.9236 24.5336 70.4547 22.7447 70.4547 31.73C70.4547 36.243 66.5923 39.3736 60.8596 39.3736C54.8829 39.3736 50.4512 35.7958 50.126 30.5916L53.8665 29.6158Z" fill="white"/>
</g>
<defs>
<clipPath id="clip0_4_429">
<rect width="265" height="51" fill="white"/>
</clipPath>
</defs>
</svg>
